<svg viewBox="0 0 215 68" fill="none" xmlns="http://www.w3.org/2000/svg">
<path fill-rule="evenodd" clip-rule="evenodd" d="M39.2601 48.1013C38.8807 51.2062 36.9834 53.6939 34.0455 54.9393C32.4101 55.6325 30.218 56.0055 28.4804 55.8879C25.778 55.7854 23.2379 55.1323 20.8978 53.9407C20.046 53.5069 18.7971 52.6497 17.8556 51.8658C17.6411 51.6878 17.5306 51.5281 17.7371 51.2378C17.957 50.9081 18.8276 49.652 18.9647 49.4448C19.1498 49.1629 19.4538 49.1487 19.7324 49.3665C19.7708 49.396 20.0538 49.6151 20.1108 49.6576C22.3639 51.4079 25.2694 52.7224 28.4983 52.8453C32.5704 52.7902 35.5248 50.9791 36.0523 48.1745C36.6334 45.0834 34.164 42.4321 29.4078 40.9531C27.8961 40.4831 24.0948 38.9732 23.3927 38.5645C20.0792 36.6364 18.5359 34.1074 18.756 30.9941C19.0924 26.6795 23.1247 23.4464 28.2417 23.4249C30.6705 23.4201 32.9482 23.9544 34.9778 24.803C35.7246 25.115 37.1159 25.8592 37.6119 26.2269C37.9585 26.4791 37.9319 26.7617 37.795 26.9805C37.5928 27.3155 36.9916 28.2501 36.7493 28.6395C36.5725 28.9066 36.3536 28.9373 36.0426 28.7416C33.4256 26.9979 30.7344 26.4068 28.3116 26.3585C24.8159 26.4274 22.1801 28.488 22.0069 31.3134C21.9612 33.8656 23.9155 35.7169 28.0644 37.1306C36.6298 39.8609 39.8749 43.0701 39.2601 48.1013ZM28.6903 3.75246C34.2346 3.75246 38.7539 8.9716 38.9655 15.5045H18.415C18.6266 8.9716 23.146 3.75246 28.6903 3.75246ZM49.7392 64.2609C52.6677 64.1817 55.04 61.8191 55.2906 58.8901L55.3094 58.5367L57.3828 16.7968V16.7961C57.3837 16.7751 57.3842 16.7541 57.3842 16.7328C57.3842 16.0543 56.8338 15.5045 56.1542 15.5045H56.1353H42.8343C42.5074 6.87834 36.2999 0 28.6903 0C21.0806 0 14.8732 6.87834 14.5462 15.5045H1.20705V15.5048C0.538346 15.5169 0 16.062 0 16.7328C0 16.7649 0.000967379 16.7966 0.00362767 16.828L0.00338583 16.8282L1.89558 58.4043L1.92388 58.9256C2.21264 61.8186 4.32926 64.1488 7.2077 64.2563H7.20867L49.5271 64.2626L49.7392" fill="#FFF"/>
</svg>
